<svg width="511" height="496" viewBox="0 0 511 496" fill="none" xmlns="http://www.w3.org/2000/svg">
  <g clip-path="url(#clip0)">
    <path d="M91.1222 178.306C99.2769 178.306 105.888 171.207 105.888 162.45C105.888 153.693 99.2769 146.594 91.1222 146.594C82.9676 146.594 76.3569 153.693 76.3569 162.45C76.3569 171.207 82.9676 178.306 91.1222 178.306Z" fill="#4896D1"/>
    <path d="M87.2403 157.834L86.4783 93.6686" stroke="#4896D1" stroke-width="2" stroke-miterlimit="10"/>
    <path d="M86.4641 97.5902C89.672 97.5902 92.2725 94.7976 92.2725 91.3527C92.2725 87.9079 89.672 85.1153 86.4641 85.1153C83.2562 85.1153 80.6558 87.9079 80.6558 91.3527C80.6558 94.7976 83.2562 97.5902 86.4641 97.5902Z" fill="#4896D1"/>
    <path d="M176.508 216.657L174.984 149.08C174.411 137.731 169.793 127.054 162.086 119.263C154.379 111.473 144.176 107.167 133.592 107.24C123.567 107.305 113.908 111.294 106.426 118.459C98.9436 125.624 94.1516 135.474 92.948 146.162L91.1653 219.838L176.508 216.657Z" fill="url(#paint0_linear)"/>
    <path d="M132.399 180.622C145.31 180.622 155.776 169.383 155.776 155.518C155.776 141.653 145.31 130.414 132.399 130.414C119.488 130.414 109.022 141.653 109.022 155.518C109.022 169.383 119.488 180.622 132.399 180.622Z" fill="url(#paint1_linear)"/>
    <path d="M125.965 161.479C128.413 161.312 130.271 159.025 130.114 156.37C129.957 153.714 127.845 151.697 125.397 151.864C122.948 152.031 121.09 154.319 121.247 156.974C121.404 159.629 123.516 161.646 125.965 161.479Z" fill="#FFFCC0"/>
    <path d="M140.64 160.7C143.088 160.533 144.946 158.245 144.789 155.59C144.632 152.935 142.52 150.918 140.072 151.085C137.623 151.252 135.765 153.539 135.922 156.194C136.079 158.849 138.191 160.866 140.64 160.7Z" fill="#FFFCC0"/>
    <path d="M253.339 295.752C217.267 294.872 196.909 276.669 186.169 261.554C179.125 251.719 174.107 240.389 171.447 228.314L186.975 225.072C187.363 227.202 197.369 277.41 253.684 278.769L253.339 295.752Z" fill="url(#paint2_linear)"/>
    <path d="M190.971 484.234L175.401 481.671C186.975 400.569 164.719 364.117 164.489 363.746L177.428 354.081C178.492 355.749 203.609 395.675 190.971 484.234Z" fill="url(#paint3_linear)"/>
    <path d="M77.8664 470.987C73.7689 379.34 97.4624 353.279 100.165 350.561L110.862 363.082L110.977 362.959C110.761 363.175 89.9288 386.504 93.6525 470.138L77.8664 470.987Z" fill="url(#paint4_linear)"/>
    <path fill-rule="evenodd" clip-rule="evenodd" d="M182.676 207.286L101.718 203.302L98.469 368.502L194.091 365.259C199.308 365.066 204.241 362.656 207.805 358.56C211.369 354.464 213.272 349.016 213.098 343.413V342.842L207.836 243.645L182.676 207.286Z" fill="url(#paint5_linear)"/>
    <path fill-rule="evenodd" clip-rule="evenodd" d="M76.7595 204.877L101.718 203.333L123.456 240.063L125.857 337.191C126.098 345.236 123.357 353.056 118.236 358.934C113.115 364.813 106.032 368.27 98.5408 368.548C90.3931 368.793 82.4875 365.558 76.558 359.552C70.6285 353.547 67.1592 345.26 66.9111 336.512V335.261L67.3856 269.367C68.0182 226.724 76.7595 204.877 76.7595 204.877Z" fill="url(#paint6_linear)"/>
    <path d="M211.427 325.998L66.8079 326.378L66.8149 329.465L211.434 329.086L211.427 325.998Z" fill="#4896D1"/>
    <path d="M145.367 260.813L146.072 299.288C146.112 300.928 146.743 302.487 147.831 303.639C148.92 304.79 150.381 305.444 151.909 305.463L187.248 305.865C188.8 305.89 190.298 305.254 191.416 304.097C192.534 302.94 193.18 301.356 193.214 299.689V299.396L192.107 261.431C192.064 259.808 191.444 258.264 190.375 257.116C189.306 255.967 187.868 255.302 186.356 255.255L151.406 254.329C150.631 254.308 149.861 254.452 149.139 254.751C148.416 255.05 147.756 255.5 147.195 256.073C146.634 256.647 146.184 257.333 145.87 258.093C145.557 258.854 145.386 259.673 145.367 260.504V260.813Z" fill="#81C6ED"/>
    <path fill-rule="evenodd" clip-rule="evenodd" d="M191.417 464.811C184.703 464.819 178.265 467.683 173.512 472.775C168.76 477.868 166.078 484.774 166.056 491.984H230.034C230.034 491.984 218.618 464.811 191.417 464.811Z" fill="url(#paint7_linear)"/>
    <path fill-rule="evenodd" clip-rule="evenodd" d="M85.3713 464.811C92.0814 464.823 98.5139 467.689 103.261 472.782C108.009 477.874 110.685 484.778 110.704 491.984H55.6394C55.6394 491.984 58.1698 464.811 85.3713 464.811Z" fill="url(#paint8_linear)"/>
    <path d="M230.393 489.668H165.74V494.3H230.393V489.668Z" fill="#95CAE5"/>
    <path d="M111.207 489.668H55.3376V494.3H111.207V489.668Z" fill="#95CAE5"/>
    <path fill-rule="evenodd" clip-rule="evenodd" d="M123.456 240.032L207.807 243.599L182.676 207.286L101.718 203.302L123.456 240.032Z" fill="url(#paint9_linear)"/>
    <path d="M182.014 263.021C182.012 263.794 182.279 264.54 182.763 265.112C183.248 265.683 183.914 266.039 184.631 266.109C184.969 266.105 185.303 266.029 185.614 265.887C185.924 265.744 186.206 265.537 186.442 265.278C186.679 265.018 186.865 264.711 186.991 264.374C187.117 264.037 187.18 263.677 187.176 263.314V263.237C187.18 262.476 186.923 261.74 186.454 261.17C185.984 260.6 185.335 260.237 184.631 260.149C184.295 260.141 183.961 260.204 183.647 260.335C183.334 260.465 183.047 260.661 182.804 260.91C182.561 261.16 182.367 261.458 182.231 261.789C182.095 262.119 182.022 262.475 182.014 262.836V263.021Z" fill="#CEE6F7"/>
    <path d="M173.848 262.697C173.847 263.509 174.135 264.291 174.654 264.883C175.172 265.474 175.882 265.83 176.637 265.877C176.988 265.883 177.337 265.815 177.664 265.676C177.991 265.538 178.289 265.331 178.541 265.069C178.793 264.807 178.995 264.493 179.135 264.147C179.274 263.801 179.349 263.429 179.355 263.052V262.913C179.357 262.109 179.077 261.333 178.571 260.741C178.065 260.149 177.369 259.783 176.623 259.717C176.272 259.703 175.921 259.763 175.592 259.894C175.262 260.025 174.96 260.224 174.702 260.481C174.444 260.738 174.236 261.046 174.09 261.39C173.943 261.733 173.861 262.103 173.848 262.481V262.697Z" fill="#CEE6F7"/>
    <path d="M165.107 262.342C165.121 263.199 165.44 264.017 165.999 264.629C166.558 265.24 167.314 265.599 168.112 265.63C168.478 265.643 168.843 265.577 169.186 265.438C169.529 265.299 169.843 265.088 170.11 264.819C170.377 264.549 170.592 264.226 170.742 263.867C170.893 263.508 170.976 263.121 170.987 262.728V262.558C170.979 261.721 170.679 260.918 170.147 260.306C169.615 259.695 168.889 259.319 168.112 259.254C167.734 259.235 167.357 259.297 167.001 259.435C166.646 259.573 166.319 259.785 166.04 260.059C165.761 260.333 165.535 260.663 165.375 261.031C165.215 261.399 165.124 261.797 165.107 262.203V262.342Z" fill="#CEE6F7"/>
    <path d="M53.713 281.085C34.3326 281.085 18.4028 237.284 18.259 236.821C17.3896 234.773 17.3132 232.439 18.0466 230.331C18.78 228.223 20.263 226.515 22.1696 225.581C24.0761 224.647 26.2499 224.565 28.2128 225.353C30.1756 226.14 31.7667 227.733 32.6361 229.78C32.8209 230.213 32.97 230.663 33.0818 231.124C37.1936 243.382 48.6091 262.635 53.6123 264.133C61.5629 262.589 71.44 240.696 75.5518 225.334C76.1608 223.214 77.518 221.434 79.3333 220.375C81.1485 219.317 83.2776 219.063 85.265 219.668C87.2524 220.273 88.9404 221.689 89.9679 223.614C90.9953 225.538 91.2807 227.818 90.7628 229.966C88.635 237.917 76.932 277.827 55.4814 280.915C54.8958 281.011 54.3052 281.068 53.713 281.085Z" fill="url(#paint10_linear)"/>
    <path d="M42.0961 196.494C40.7817 196.577 39.5477 197.201 38.6507 198.236C37.7537 199.271 37.2627 200.638 37.2798 202.052V216.951C37.2798 217.101 37.2523 217.249 37.1988 217.388C37.1454 217.526 37.067 217.652 36.9682 217.758C36.8694 217.864 36.7521 217.949 36.623 218.006C36.494 218.063 36.3556 218.093 36.2159 218.093C35.9337 218.093 35.6631 217.973 35.4636 217.758C35.2641 217.544 35.152 217.254 35.152 216.951V196.432C35.152 191.584 33.3586 186.934 30.1662 183.506C26.9739 180.078 22.6441 178.152 18.1295 178.152C13.6173 178.156 9.29127 180.084 6.10204 183.511C2.91281 186.939 1.12134 191.586 1.12134 196.432V219.328C1.12134 225.88 3.54491 232.163 7.85888 236.796C12.1729 241.428 18.0239 244.031 24.1247 244.031C30.2256 244.031 36.0766 241.428 40.3906 236.796C44.7046 232.163 47.1281 225.88 47.1281 219.328V201.82C47.13 201.123 47.004 200.432 46.7572 199.786C46.5104 199.141 46.1477 198.555 45.6897 198.06C45.2318 197.565 44.6876 197.173 44.0883 196.904C43.489 196.635 42.8463 196.496 42.1968 196.494H42.0961Z" fill="url(#paint11_linear)"/>
    <path d="M265.962 309.647C276.69 309.647 285.386 300.309 285.386 288.789C285.386 277.269 276.69 267.931 265.962 267.931C255.235 267.931 246.539 277.269 246.539 288.789C246.539 300.309 255.235 309.647 265.962 309.647Z" fill="url(#paint12_linear)"/>
  </g>
  <path d="M473.948 442.652H256.832V62.2834L293.535 39.2492L473.948 442.652Z" fill="#1C4077"/>
  <path d="M510.651 39.2492H293.535V442.643H510.651V39.2492Z" fill="#4896D1"/>
  <path d="M498.086 55.7465H306.543V86.4367H498.086V55.7465Z" fill="#1C4077"/>
  <path d="M358.32 75.8461H321.4V79.4578H358.32V75.8461Z" fill="#000430"/>
  <path d="M402.305 75.8461H365.385V79.4578H402.305V75.8461Z" fill="#000430"/>
  <path d="M358.32 69.2811H321.4V72.8928H358.32V69.2811Z" fill="#000430"/>
  <path d="M402.305 69.2811H365.385V72.8928H402.305V69.2811Z" fill="#000430"/>
  <path d="M358.32 62.716H321.4V66.3277H358.32V62.716Z" fill="#000430"/>
  <path d="M402.305 62.716H365.385V66.3277H402.305V62.716Z" fill="#000430"/>
  <path d="M313.788 62.716V79.4578" stroke="#81C6ED" stroke-width="2.81" stroke-miterlimit="10" stroke-linecap="round"/>
  <path d="M491.068 62.716V79.4578" stroke="#81C6ED" stroke-width="2.81" stroke-miterlimit="10" stroke-linecap="round"/>
  <path d="M456.704 73.5794C457.96 73.5794 458.978 72.5645 458.978 71.3127C458.978 70.0608 457.96 69.0459 456.704 69.0459C455.449 69.0459 454.431 70.0608 454.431 71.3127C454.431 72.5645 455.449 73.5794 456.704 73.5794Z" fill="#ABCF37"/>
  <path d="M465.921 73.5794C467.176 73.5794 468.194 72.5645 468.194 71.3127C468.194 70.0608 467.176 69.0459 465.921 69.0459C464.665 69.0459 463.647 70.0608 463.647 71.3127C463.647 72.5645 464.665 73.5794 465.921 73.5794Z" fill="#ABCF37"/>
  <path d="M475.146 73.5794C476.401 73.5794 477.419 72.5645 477.419 71.3127C477.419 70.0608 476.401 69.0459 475.146 69.0459C473.89 69.0459 472.873 70.0608 472.873 71.3127C472.873 72.5645 473.89 73.5794 475.146 73.5794Z" fill="#ABCF37"/>
  <path d="M498.086 90.6128H306.543V121.303H498.086V90.6128Z" fill="#1C4077"/>
  <path d="M358.32 110.712H321.4V114.324H358.32V110.712Z" fill="#000430"/>
  <path d="M402.305 110.712H365.385V114.324H402.305V110.712Z" fill="#000430"/>
  <path d="M358.32 104.147H321.4V107.759H358.32V104.147Z" fill="#000430"/>
  <path d="M402.305 104.147H365.385V107.759H402.305V104.147Z" fill="#000430"/>
  <path d="M358.32 97.5917H321.4V101.203H358.32V97.5917Z" fill="#000430"/>
  <path d="M402.305 97.5917H365.385V101.203H402.305V97.5917Z" fill="#000430"/>
  <path d="M313.788 97.5917V114.324" stroke="#81C6ED" stroke-width="2.81" stroke-miterlimit="10" stroke-linecap="round"/>
  <path d="M491.068 97.5917V114.324" stroke="#81C6ED" stroke-width="2.81" stroke-miterlimit="10" stroke-linecap="round"/>
  <path d="M456.704 108.455C457.96 108.455 458.978 107.44 458.978 106.188C458.978 104.936 457.96 103.922 456.704 103.922C455.449 103.922 454.431 104.936 454.431 106.188C454.431 107.44 455.449 108.455 456.704 108.455Z" fill="#F8C22C"/>
  <path d="M465.921 108.455C467.176 108.455 468.194 107.44 468.194 106.188C468.194 104.936 467.176 103.922 465.921 103.922C464.665 103.922 463.647 104.936 463.647 106.188C463.647 107.44 464.665 108.455 465.921 108.455Z" fill="#F8C22C"/>
  <path d="M475.146 108.455C476.401 108.455 477.419 107.44 477.419 106.188C477.419 104.936 476.401 103.922 475.146 103.922C473.89 103.922 472.873 104.936 472.873 106.188C472.873 107.44 473.89 108.455 475.146 108.455Z" fill="#F8C22C"/>
  <path d="M498.086 125.488H306.543V156.179H498.086V125.488Z" fill="#1C4077"/>
  <path d="M358.32 145.588H321.4V149.2H358.32V145.588Z" fill="#000430"/>
  <path d="M402.305 145.588H365.385V149.2H402.305V145.588Z" fill="#000430"/>
  <path d="M358.32 139.023H321.4V142.635H358.32V139.023Z" fill="#000430"/>
  <path d="M402.305 139.023H365.385V142.635H402.305V139.023Z" fill="#000430"/>
  <path d="M358.32 132.458H321.4V136.07H358.32V132.458Z" fill="#000430"/>
  <path d="M402.305 132.458H365.385V136.07H402.305V132.458Z" fill="#000430"/>
  <path d="M313.788 132.458V149.2" stroke="#81C6ED" stroke-width="2.81" stroke-miterlimit="10" stroke-linecap="round"/>
  <path d="M491.068 132.458V149.2" stroke="#81C6ED" stroke-width="2.81" stroke-miterlimit="10" stroke-linecap="round"/>
  <path d="M456.704 143.321C457.96 143.321 458.978 142.306 458.978 141.055C458.978 139.803 457.96 138.788 456.704 138.788C455.449 138.788 454.431 139.803 454.431 141.055C454.431 142.306 455.449 143.321 456.704 143.321Z" fill="#F8C22C"/>
  <path d="M465.921 143.321C467.176 143.321 468.194 142.306 468.194 141.055C468.194 139.803 467.176 138.788 465.921 138.788C464.665 138.788 463.647 139.803 463.647 141.055C463.647 142.306 464.665 143.321 465.921 143.321Z" fill="#F8C22C"/>
  <path d="M475.146 143.321C476.401 143.321 477.419 142.306 477.419 141.055C477.419 139.803 476.401 138.788 475.146 138.788C473.89 138.788 472.873 139.803 472.873 141.055C472.873 142.306 473.89 143.321 475.146 143.321Z" fill="#F8C22C"/>
  <path d="M498.086 160.355H306.543V191.045H498.086V160.355Z" fill="#1C4077"/>
  <path d="M358.32 180.454H321.4V184.066H358.32V180.454Z" fill="#000430"/>
  <path d="M402.305 180.454H365.385V184.066H402.305V180.454Z" fill="#000430"/>
  <path d="M358.32 173.889H321.4V177.501H358.32V173.889Z" fill="#000430"/>
  <path d="M402.305 173.889H365.385V177.501H402.305V173.889Z" fill="#000430"/>
  <path d="M358.32 167.334H321.4V170.945H358.32V167.334Z" fill="#000430"/>
  <path d="M402.305 167.334H365.385V170.945H402.305V167.334Z" fill="#000430"/>
  <path d="M313.788 167.334V184.066" stroke="#81C6ED" stroke-width="2.81" stroke-miterlimit="10" stroke-linecap="round"/>
  <path d="M491.068 167.334V184.066" stroke="#81C6ED" stroke-width="2.81" stroke-miterlimit="10" stroke-linecap="round"/>
  <path d="M456.704 178.197C457.96 178.197 458.978 177.182 458.978 175.93C458.978 174.678 457.96 173.664 456.704 173.664C455.449 173.664 454.431 174.678 454.431 175.93C454.431 177.182 455.449 178.197 456.704 178.197Z" fill="#F8C22C"/>
  <path d="M465.921 178.197C467.176 178.197 468.194 177.182 468.194 175.93C468.194 174.678 467.176 173.664 465.921 173.664C464.665 173.664 463.647 174.678 463.647 175.93C463.647 177.182 464.665 178.197 465.921 178.197Z" fill="#F8C22C"/>
  <path d="M475.146 178.197C476.401 178.197 477.419 177.182 477.419 175.93C477.419 174.678 476.401 173.664 475.146 173.664C473.89 173.664 472.873 174.678 472.873 175.93C472.873 177.182 473.89 178.197 475.146 178.197Z" fill="#F8C22C"/>
  <path d="M498.086 195.23H306.543V225.921H498.086V195.23Z" fill="#1C4077"/>
  <path d="M358.32 215.321H321.4V218.932H358.32V215.321Z" fill="#000430"/>
  <path d="M402.305 215.321H365.385V218.932H402.305V215.321Z" fill="#000430"/>
  <path d="M358.32 208.765H321.4V212.377H358.32V208.765Z" fill="#000430"/>
  <path d="M402.305 208.765H365.385V212.377H402.305V208.765Z" fill="#000430"/>
  <path d="M358.32 202.2H321.4V205.812H358.32V202.2Z" fill="#000430"/>
  <path d="M402.305 202.2H365.385V205.812H402.305V202.2Z" fill="#000430"/>
  <path d="M313.788 202.2V218.942" stroke="#81C6ED" stroke-width="2.81" stroke-miterlimit="10" stroke-linecap="round"/>
  <path d="M491.068 202.2V218.942" stroke="#81C6ED" stroke-width="2.81" stroke-miterlimit="10" stroke-linecap="round"/>
  <path d="M456.704 213.063C457.96 213.063 458.978 212.048 458.978 210.797C458.978 209.545 457.96 208.53 456.704 208.53C455.449 208.53 454.431 209.545 454.431 210.797C454.431 212.048 455.449 213.063 456.704 213.063Z" fill="#F0582A"/>
  <path d="M465.921 213.063C467.176 213.063 468.194 212.048 468.194 210.797C468.194 209.545 467.176 208.53 465.921 208.53C464.665 208.53 463.647 209.545 463.647 210.797C463.647 212.048 464.665 213.063 465.921 213.063Z" fill="#F0582A"/>
  <path d="M475.146 213.063C476.401 213.063 477.419 212.048 477.419 210.797C477.419 209.545 476.401 208.53 475.146 208.53C473.89 208.53 472.873 209.545 472.873 210.797C472.873 212.048 473.89 213.063 475.146 213.063Z" fill="#F0582A"/>
  <path d="M498.086 230.097H306.543V260.787H498.086V230.097Z" fill="#1C4077"/>
  <path d="M358.32 250.196H321.4V253.808H358.32V250.196Z" fill="#000430"/>
  <path d="M402.305 250.196H365.385V253.808H402.305V250.196Z" fill="#000430"/>
  <path d="M358.32 243.631H321.4V247.243H358.32V243.631Z" fill="#000430"/>
  <path d="M402.305 243.631H365.385V247.243H402.305V243.631Z" fill="#000430"/>
  <path d="M358.32 237.076H321.4V240.687H358.32V237.076Z" fill="#000430"/>
  <path d="M402.305 237.076H365.385V240.687H402.305V237.076Z" fill="#000430"/>
  <path d="M313.788 237.076V253.808" stroke="#81C6ED" stroke-width="2.81" stroke-miterlimit="10" stroke-linecap="round"/>
  <path d="M491.068 237.076V253.808" stroke="#81C6ED" stroke-width="2.81" stroke-miterlimit="10" stroke-linecap="round"/>
  <path d="M456.704 247.939C457.96 247.939 458.978 246.924 458.978 245.672C458.978 244.42 457.96 243.405 456.704 243.405C455.449 243.405 454.431 244.42 454.431 245.672C454.431 246.924 455.449 247.939 456.704 247.939Z" fill="#F0582A"/>
  <path d="M465.921 247.939C467.176 247.939 468.194 246.924 468.194 245.672C468.194 244.42 467.176 243.405 465.921 243.405C464.665 243.405 463.647 244.42 463.647 245.672C463.647 246.924 464.665 247.939 465.921 247.939Z" fill="#F0582A"/>
  <path d="M475.146 247.939C476.401 247.939 477.419 246.924 477.419 245.672C477.419 244.42 476.401 243.405 475.146 243.405C473.89 243.405 472.873 244.42 472.873 245.672C472.873 246.924 473.89 247.939 475.146 247.939Z" fill="#F0582A"/>
  <path d="M498.086 264.972H306.543V295.663H498.086V264.972Z" fill="#1C4077"/>
  <path d="M358.32 285.062H321.4V288.674H358.32V285.062Z" fill="#000430"/>
  <path d="M402.305 285.062H365.385V288.674H402.305V285.062Z" fill="#000430"/>
  <path d="M358.32 278.507H321.4V282.119H358.32V278.507Z" fill="#000430"/>
  <path d="M402.305 278.507H365.385V282.119H402.305V278.507Z" fill="#000430"/>
  <path d="M358.32 271.942H321.4V275.554H358.32V271.942Z" fill="#000430"/>
  <path d="M402.305 271.942H365.385V275.554H402.305V271.942Z" fill="#000430"/>
  <path d="M313.788 271.942V288.684" stroke="#81C6ED" stroke-width="2.81" stroke-miterlimit="10" stroke-linecap="round"/>
  <path d="M491.068 271.942V288.684" stroke="#81C6ED" stroke-width="2.81" stroke-miterlimit="10" stroke-linecap="round"/>
  <path d="M456.704 282.805C457.96 282.805 458.978 281.79 458.978 280.538C458.978 279.287 457.96 278.272 456.704 278.272C455.449 278.272 454.431 279.287 454.431 280.538C454.431 281.79 455.449 282.805 456.704 282.805Z" fill="#ABCF37"/>
  <path d="M465.921 282.805C467.176 282.805 468.194 281.79 468.194 280.538C468.194 279.287 467.176 278.272 465.921 278.272C464.665 278.272 463.647 279.287 463.647 280.538C463.647 281.79 464.665 282.805 465.921 282.805Z" fill="#ABCF37"/>
  <path d="M475.146 282.805C476.401 282.805 477.419 281.79 477.419 280.538C477.419 279.287 476.401 278.272 475.146 278.272C473.89 278.272 472.873 279.287 472.873 280.538C472.873 281.79 473.89 282.805 475.146 282.805Z" fill="#ABCF37"/>
  <path d="M498.086 299.839H306.543V330.529H498.086V299.839Z" fill="#1C4077"/>
  <path d="M358.32 319.938H321.4V323.55H358.32V319.938Z" fill="#000430"/>
  <path d="M402.305 319.938H365.385V323.55H402.305V319.938Z" fill="#000430"/>
  <path d="M358.32 313.373H321.4V316.985H358.32V313.373Z" fill="#000430"/>
  <path d="M402.305 313.373H365.385V316.985H402.305V313.373Z" fill="#000430"/>
  <path d="M358.32 306.817H321.4V310.429H358.32V306.817Z" fill="#000430"/>
  <path d="M402.305 306.817H365.385V310.429H402.305V306.817Z" fill="#000430"/>
  <path d="M313.788 306.817V323.55" stroke="#81C6ED" stroke-width="2.81" stroke-miterlimit="10" stroke-linecap="round"/>
  <path d="M491.068 306.817V323.55" stroke="#81C6ED" stroke-width="2.81" stroke-miterlimit="10" stroke-linecap="round"/>
  <path d="M456.704 317.681C457.96 317.681 458.978 316.666 458.978 315.414C458.978 314.162 457.96 313.147 456.704 313.147C455.449 313.147 454.431 314.162 454.431 315.414C454.431 316.666 455.449 317.681 456.704 317.681Z" fill="#ABCF37"/>
  <path d="M465.921 317.681C467.176 317.681 468.194 316.666 468.194 315.414C468.194 314.162 467.176 313.147 465.921 313.147C464.665 313.147 463.647 314.162 463.647 315.414C463.647 316.666 464.665 317.681 465.921 317.681Z" fill="#ABCF37"/>
  <path d="M475.146 317.681C476.401 317.681 477.419 316.666 477.419 315.414C477.419 314.162 476.401 313.147 475.146 313.147C473.89 313.147 472.873 314.162 472.873 315.414C472.873 316.666 473.89 317.681 475.146 317.681Z" fill="#ABCF37"/>
  <path d="M498.086 334.714H306.543V365.404H498.086V334.714Z" fill="#1C4077"/>
  <path d="M358.32 354.804H321.4V358.416H358.32V354.804Z" fill="#000430"/>
  <path d="M402.305 354.804H365.385V358.416H402.305V354.804Z" fill="#000430"/>
  <path d="M358.32 348.249H321.4V351.861H358.32V348.249Z" fill="#000430"/>
  <path d="M402.305 348.249H365.385V351.861H402.305V348.249Z" fill="#000430"/>
  <path d="M358.32 341.684H321.4V345.295H358.32V341.684Z" fill="#000430"/>
  <path d="M402.305 341.684H365.385V345.295H402.305V341.684Z" fill="#000430"/>
  <path d="M313.788 341.684V358.426" stroke="#81C6ED" stroke-width="2.81" stroke-miterlimit="10" stroke-linecap="round"/>
  <path d="M491.068 341.684V358.426" stroke="#81C6ED" stroke-width="2.81" stroke-miterlimit="10" stroke-linecap="round"/>
  <path d="M456.704 352.547C457.96 352.547 458.978 351.532 458.978 350.28C458.978 349.029 457.96 348.014 456.704 348.014C455.449 348.014 454.431 349.029 454.431 350.28C454.431 351.532 455.449 352.547 456.704 352.547Z" fill="#ABCF37"/>
  <path d="M465.921 352.547C467.176 352.547 468.194 351.532 468.194 350.28C468.194 349.029 467.176 348.014 465.921 348.014C464.665 348.014 463.647 349.029 463.647 350.28C463.647 351.532 464.665 352.547 465.921 352.547Z" fill="#ABCF37"/>
  <path d="M475.146 352.547C476.401 352.547 477.419 351.532 477.419 350.28C477.419 349.029 476.401 348.014 475.146 348.014C473.89 348.014 472.873 349.029 472.873 350.28C472.873 351.532 473.89 352.547 475.146 352.547Z" fill="#ABCF37"/>
  <path d="M498.086 369.581H306.543V400.271H498.086V369.581Z" fill="#1C4077"/>
  <path d="M358.32 389.68H321.4V393.292H358.32V389.68Z" fill="#000430"/>
  <path d="M402.305 389.68H365.385V393.292H402.305V389.68Z" fill="#000430"/>
  <path d="M358.32 383.115H321.4V386.727H358.32V383.115Z" fill="#000430"/>
  <path d="M402.305 383.115H365.385V386.727H402.305V383.115Z" fill="#000430"/>
  <path d="M358.32 376.559H321.4V380.171H358.32V376.559Z" fill="#000430"/>
  <path d="M402.305 376.559H365.385V380.171H402.305V376.559Z" fill="#000430"/>
  <path d="M313.788 376.559V393.292" stroke="#81C6ED" stroke-width="2.81" stroke-miterlimit="10" stroke-linecap="round"/>
  <path d="M491.068 376.559V393.292" stroke="#81C6ED" stroke-width="2.81" stroke-miterlimit="10" stroke-linecap="round"/>
  <path d="M456.704 387.423C457.96 387.423 458.978 386.408 458.978 385.156C458.978 383.904 457.96 382.889 456.704 382.889C455.449 382.889 454.431 383.904 454.431 385.156C454.431 386.408 455.449 387.423 456.704 387.423Z" fill="#ABCF37"/>
  <path d="M465.921 387.423C467.176 387.423 468.194 386.408 468.194 385.156C468.194 383.904 467.176 382.889 465.921 382.889C464.665 382.889 463.647 383.904 463.647 385.156C463.647 386.408 464.665 387.423 465.921 387.423Z" fill="#ABCF37"/>
  <path d="M475.146 387.423C476.401 387.423 477.419 386.408 477.419 385.156C477.419 383.904 476.401 382.889 475.146 382.889C473.89 382.889 472.873 383.904 472.873 385.156C472.873 386.408 473.89 387.423 475.146 387.423Z" fill="#ABCF37"/>
  <path d="M334.237 33.2431H332.465V39.1929H334.237V33.2431Z" fill="#1C4177"/>
  <path d="M340.386 33.2431H338.615V39.1929H340.386V33.2431Z" fill="#1C4177"/>
  <path d="M350.353 19.7588C350.353 22.5878 349.511 25.3532 347.933 27.7045C346.355 30.0558 344.113 31.8873 341.491 32.9669C338.868 34.0466 335.983 34.3257 333.202 33.7691C330.42 33.2124 327.867 31.845 325.865 29.84C323.863 27.8351 322.504 25.2828 321.958 22.5066C321.412 19.7304 321.705 16.8552 322.8 14.2452C323.895 11.6353 325.742 9.40805 328.107 7.84571C330.472 6.28337 333.25 5.45624 336.087 5.4691C337.966 5.46908 339.826 5.83915 341.561 6.55807C343.296 7.27699 344.872 8.3306 346.198 9.65838C347.523 10.9862 348.573 12.562 349.286 14.2953C349.999 16.0286 350.362 17.8853 350.353 19.7588Z" fill="#F8C22A"/>
  <path d="M361.961 3.24767L348.477 26.7998C348.477 26.7998 343.852 21.8243 344.438 19.7588C345.024 17.6933 353.18 0 353.18 0L361.961 3.24767Z" fill="#F8C22A"/>
  <path d="M323.697 26.7997L312.779 9.91186C312.099 8.8846 311.833 7.63985 312.032 6.4253C312.231 5.21075 312.881 4.11543 313.853 3.35727C314.825 2.59912 316.048 2.23371 317.278 2.33375C318.508 2.4338 319.656 2.99196 320.492 3.89719C322.863 6.35242 326.237 8.79467 329.39 7.22279C335.019 4.41681 339.5 19.7848 339.5 19.7848L323.697 26.7997Z" fill="#F8C22A"/>
  <path d="M313.691 11.6526L312.688 15.6408L318.903 12.1203L316.297 10.5744C315.913 10.3306 315.448 10.2484 315.004 10.3458C314.559 10.4432 314.172 10.7122 313.926 11.094C313.81 11.2625 313.731 11.4525 313.691 11.6526Z" fill="#1C4177"/>
  <path d="M317.808 8.327C317.808 8.52484 317.749 8.71823 317.639 8.88273C317.529 9.04722 317.372 9.17543 317.189 9.25114C317.006 9.32685 316.804 9.34666 316.609 9.30806C316.415 9.26946 316.236 9.1742 316.096 9.03431C315.955 8.89441 315.86 8.71618 315.821 8.52214C315.782 8.32811 315.802 8.12699 315.878 7.94421C315.954 7.76143 316.083 7.60521 316.248 7.49529C316.413 7.38538 316.607 7.32672 316.805 7.32672C316.937 7.32497 317.068 7.34965 317.191 7.3993C317.313 7.44895 317.425 7.52256 317.518 7.6158C317.612 7.70903 317.686 7.82 317.735 7.94215C317.785 8.0643 317.81 8.19516 317.808 8.327Z" fill="#1C4177"/>
  <path d="M334.237 22.4479C332.962 22.4792 331.693 22.2676 330.498 21.8243C324.309 19.3301 326.837 12.0553 326.863 11.9774L327.67 12.2632C327.579 12.536 325.39 18.8495 330.81 21.0189C336.999 23.5391 349.871 17.0438 349.949 16.9269L350.34 17.6803C349.949 17.9141 340.999 22.4479 334.237 22.4479Z" fill="#1C4177"/>
  <defs>
    <linearGradient id="paint0_linear" x1="92.8841" y1="144.372" x2="190.381" y2="183.081" gradientUnits="userSpaceOnUse">
      <stop offset="0.05" stop-color="#CEE6F7"/>
      <stop offset="0.17" stop-color="#C7E3F6"/>
      <stop offset="0.34" stop-color="#B5DCF4"/>
      <stop offset="0.54" stop-color="#97CFF0"/>
      <stop offset="0.66" stop-color="#81C6ED"/>
    </linearGradient>
    <linearGradient id="paint1_linear" x1="156.351" y1="192.973" x2="96.8496" y2="112.281" gradientUnits="userSpaceOnUse">
      <stop offset="0.23" stop-color="#26D1BB"/>
      <stop offset="0.84" stop-color="#08968B"/>
      <stop offset="1" stop-color="#08968B"/>
    </linearGradient>
    <linearGradient id="paint2_linear" x1="-5850.83" y1="-630.178" x2="-5975.36" y2="-646.016" gradientUnits="userSpaceOnUse">
      <stop offset="0.28" stop-color="#22B9A5"/>
      <stop offset="0.84" stop-color="#02958A"/>
    </linearGradient>
    <linearGradient id="paint3_linear" x1="185.968" y1="465.244" x2="172.608" y2="337.947" gradientUnits="userSpaceOnUse">
      <stop stop-color="#22B9A5"/>
      <stop offset="0.59" stop-color="#22B9A5"/>
      <stop offset="0.63" stop-color="#17AA9A"/>
      <stop offset="0.69" stop-color="#0E9F91"/>
      <stop offset="0.77" stop-color="#09988C"/>
      <stop offset="1" stop-color="#08968B"/>
    </linearGradient>
    <linearGradient id="paint4_linear" x1="39050.6" y1="55976.6" x2="42242.9" y2="47269.9" gradientUnits="userSpaceOnUse">
      <stop stop-color="#22B9A5"/>
      <stop offset="0.59" stop-color="#22B9A5"/>
      <stop offset="0.63" stop-color="#17AA9A"/>
      <stop offset="0.69" stop-color="#0E9F91"/>
      <stop offset="0.77" stop-color="#09988C"/>
      <stop offset="1" stop-color="#08968B"/>
    </linearGradient>
    <linearGradient id="paint5_linear" x1="184.946" y1="193.236" x2="162.89" y2="362.715" gradientUnits="userSpaceOnUse">
      <stop offset="0.48" stop-color="#CEE6F7"/>
      <stop offset="0.58" stop-color="#C7E3F6"/>
      <stop offset="0.72" stop-color="#B5DCF4"/>
      <stop offset="0.89" stop-color="#97CFF0"/>
      <stop offset="1" stop-color="#81C6ED"/>
    </linearGradient>
    <linearGradient id="paint6_linear" x1="132.461" y1="295.148" x2="55.2371" y2="277.355" gradientUnits="userSpaceOnUse">
      <stop stop-color="#4896D1"/>
      <stop offset="1" stop-color="#81C6ED"/>
    </linearGradient>
    <linearGradient id="paint7_linear" x1="166.056" y1="478.398" x2="230.034" y2="478.398" gradientUnits="userSpaceOnUse">
      <stop offset="0.42" stop-color="#3673AC"/>
      <stop offset="1" stop-color="#4896D1"/>
    </linearGradient>
    <linearGradient id="paint8_linear" x1="9840.58" y1="3051.68" x2="11949.5" y2="3051.68" gradientUnits="userSpaceOnUse">
      <stop offset="0.42" stop-color="#3673AC"/>
      <stop offset="1" stop-color="#4896D1"/>
    </linearGradient>
    <linearGradient id="paint9_linear" x1="141.578" y1="251.823" x2="195.833" y2="212.222" gradientUnits="userSpaceOnUse">
      <stop stop-color="#CEE6F7"/>
      <stop offset="1" stop-color="#81C6ED"/>
    </linearGradient>
    <linearGradient id="paint10_linear" x1="17.7845" y1="250.207" x2="91.1079" y2="250.207" gradientUnits="userSpaceOnUse">
      <stop offset="0.23" stop-color="#26D1BB"/>
      <stop offset="1" stop-color="#08968B"/>
    </linearGradient>
    <linearGradient id="paint11_linear" x1="6721.34" y1="19729.1" x2="7792.7" y2="17484.5" gradientUnits="userSpaceOnUse">
      <stop offset="0.42" stop-color="#3673AC"/>
      <stop offset="1" stop-color="#4896D1"/>
    </linearGradient>
    <linearGradient id="paint12_linear" x1="12307.7" y1="9362.58" x2="13357.4" y2="9362.58" gradientUnits="userSpaceOnUse">
      <stop offset="0.42" stop-color="#3673AC"/>
      <stop offset="1" stop-color="#4896D1"/>
    </linearGradient>
    <clipPath id="clip0">
      <rect width="286.105" height="410.682" fill="white" transform="translate(0 85.0072)"/>
    </clipPath>
  </defs>
</svg>
